<?xml version="1.0" encoding="UTF-8" standalone="no"?><!DOCTYPE svg PUBLIC "-//W3C//DTD SVG 1.1//EN" "http://www.w3.org/Graphics/SVG/1.1/DTD/svg11.dtd"><svg width="100%" height="100%" viewBox="0 0 512 512" version="1.1" xmlns="http://www.w3.org/2000/svg" xmlns:xlink="http://www.w3.org/1999/xlink" xml:space="preserve" xmlns:serif="http://www.serif.com/" style="fill-rule:evenodd;clip-rule:evenodd;stroke-linejoin:round;stroke-miterlimit:2;"><rect id="tip" x="0" y="0" width="512" height="512" style="fill:none;"/><clipPath id="_clip1"><rect x="0" y="0" width="512" height="512"/></clipPath><g clip-path="url(#_clip1)"><circle cx="256.227" cy="256.064" r="256" style="fill:#40c4ff;"/><path d="M130.426,184.676c0,39.165 17.903,74.135 45.967,97.2c24.044,19.76 38.045,49.335 38.045,80.457l0,0.047c0,4.419 1.791,8.419 4.687,11.315l12.522,12.522l-10.109,0c-2.72,0 -4.924,2.204 -4.924,4.924l0,8.433c0,1.353 0.547,2.578 1.43,3.468l-0.001,0.001l7.874,7.874c-1.87,0.699 -3.209,2.486 -3.209,4.6l0,8.434c0,1.485 0.671,2.8 1.71,3.703l-0.024,0.024l8.824,8.824c-0.843,0.884 -1.369,2.075 -1.369,3.393l0,8.434c0,1.493 0.678,2.813 1.726,3.716l-0.025,0.025l57.611,57.611c122.696,-16.745 217.727,-120.407 220.977,-246.916l-164.376,-164.377c-22.938,-24.325 -55.461,-39.513 -91.535,-39.513c-69.478,0 -125.801,56.323 -125.801,125.801Z" style="fill:#01579b;fill-rule:nonzero;"/><path d="M295.839,399.576c0,2.719 -2.204,4.924 -4.924,4.924l-69.375,0c-2.719,0 -4.924,-2.204 -4.924,-4.924l0,-8.434c0,-2.719 2.205,-4.924 4.924,-4.924l69.375,0c2.719,0 4.924,2.205 4.924,4.924l0,8.434Z" style="fill:#fff;fill-rule:nonzero;"/><path d="M289.745,423.953c0,2.719 -2.204,4.924 -4.924,4.924l-57.187,0c-2.719,0 -4.924,-2.204 -4.924,-4.924l0,-8.434c0,-2.719 2.205,-4.924 4.924,-4.924l57.187,0c2.719,0 4.924,2.204 4.924,4.924l0,8.434Z" style="fill:#fff;fill-rule:nonzero;"/><path d="M280.603,448.329c0,2.719 -2.204,4.924 -4.924,4.924l-38.904,0c-2.719,0 -4.924,-2.205 -4.924,-4.924l0,-8.434c0,-2.719 2.205,-4.924 4.924,-4.924l38.905,0c2.719,0 4.924,2.205 4.924,4.924l0,8.434l-0.001,0Z" style="fill:#fff;fill-rule:nonzero;"/><path d="M256.227,58.875c-69.478,0 -125.801,56.323 -125.801,125.801c0,39.164 17.903,74.135 45.967,97.2c24.044,19.759 38.045,49.335 38.045,80.457l0,0.047c0,8.837 7.164,16.002 16.002,16.002l51.573,0c8.837,0 16.002,-7.164 16.002,-16.002l0,-0.047c0,-31.159 13.972,-60.673 38.045,-80.457c28.064,-23.065 45.967,-58.036 45.967,-97.2c0.001,-69.478 -56.322,-125.801 -125.8,-125.801Zm57.242,161.794c0,2.719 -2.205,4.924 -4.924,4.924l-44.918,0l0,121.529c0,2.719 -2.204,4.924 -4.924,4.924l-4.951,0c-2.719,0 -4.924,-2.204 -4.924,-4.924l0,-121.529l-44.918,0c-2.719,0 -4.924,-2.205 -4.924,-4.924l0,-4.952c0,-2.719 2.205,-4.924 4.924,-4.924l104.635,0c2.719,0 4.924,2.205 4.924,4.924l0,4.952Z" style="fill:#fff;fill-rule:nonzero;"/></g></svg>