<?xml version="1.0" encoding="UTF-8" standalone="no"?><!DOCTYPE svg PUBLIC "-//W3C//DTD SVG 1.1//EN" "http://www.w3.org/Graphics/SVG/1.1/DTD/svg11.dtd"><svg width="100%" height="100%" viewBox="0 0 200 200" version="1.1" xmlns="http://www.w3.org/2000/svg" xmlns:xlink="http://www.w3.org/1999/xlink" xml:space="preserve" xmlns:serif="http://www.serif.com/" style="fill-rule:evenodd;clip-rule:evenodd;stroke-linejoin:round;stroke-miterlimit:2;"><rect id="mobx" x="0" y="0" width="200" height="200" style="fill:none;"/><g><path d="M195,20.255c0,-8.419 -6.836,-15.255 -15.255,-15.255l-159.49,0c-8.419,0 -15.255,6.836 -15.255,15.255l0,159.49c0,8.419 6.836,15.255 15.255,15.255l159.49,0c8.419,0 15.255,-6.836 15.255,-15.255l0,-159.49Z" style="fill:#ebebeb;"/><clipPath id="_clip1"><path d="M195,20.255c0,-8.419 -6.836,-15.255 -15.255,-15.255l-159.49,0c-8.419,0 -15.255,6.836 -15.255,15.255l0,159.49c0,8.419 6.836,15.255 15.255,15.255l159.49,0c8.419,0 15.255,-6.836 15.255,-15.255l0,-159.49Z"/></clipPath><g clip-path="url(#_clip1)"><path d="M-25.509,59.179l79.903,79.903l157.115,-157.115l-79.903,-79.903l-157.115,157.115Z" style="fill:#2ab6f6;"/><path d="M322.689,86.082l-107.903,-107.903l-157.115,157.115l107.903,107.903l157.115,-157.115Z" style="fill:#40c4ff;"/><path d="M69.198,-12l-109.149,29.247l57.508,214.623l109.15,-29.247l-57.509,-214.623Z" style="fill:#01579b;"/></g><text x="40.647px" y="129.56px" style="font-family:'HelveticaNeue', 'Helvetica Neue';font-size:110.713px;fill:#fff;">]<tspan x="70.848px 129.152px " y="129.56px 129.56px ">v[</tspan></text></g></svg>