<?xml version="1.0" encoding="UTF-8" standalone="no"?><!DOCTYPE svg PUBLIC "-//W3C//DTD SVG 1.1//EN" "http://www.w3.org/Graphics/SVG/1.1/DTD/svg11.dtd"><svg width="100%" height="100%" viewBox="0 0 834 834" version="1.1" xmlns="http://www.w3.org/2000/svg" xmlns:xlink="http://www.w3.org/1999/xlink" xml:space="preserve" xmlns:serif="http://www.serif.com/" style="fill-rule:evenodd;clip-rule:evenodd;stroke-linejoin:round;stroke-miterlimit:2;"><rect id="mobx" x="0" y="0" width="833.333" height="833.333" style="fill:none;"/><path d="M20.833,84.396c0,-35.081 28.482,-63.563 63.563,-63.563l222.911,0l212.126,791.667l-435.037,0c-35.081,0 -63.563,-28.481 -63.563,-63.562l0,-664.542Z" style="fill:#01579b;"/><path d="M408.322,397.829l-101.015,-376.996l441.631,0c9.982,0 19.429,2.306 27.838,6.414c0.475,0.232 0.947,0.47 1.415,0.713l-369.869,369.869Z" style="fill:#2ab6f6;"/><path d="M519.433,812.5l-111.111,-414.671l369.869,-369.869c20.377,10.593 34.309,31.9 34.309,56.436l0,664.542c0,35.081 -28.481,63.562 -63.562,63.562l-229.505,0Z" style="fill:#40c4ff;"/><g><path d="M169.363,599.343l-0,31.369l90.856,-0l-0,-428.091l-90.856,0l-0,31.369l51.987,0l0,365.353l-51.987,0Z" style="fill:#fff;fill-rule:nonzero;"/><path d="M439.502,539.835l91.828,-238.494l-43.242,-0l-68.506,198.822l-0.972,-0l-70.45,-198.822l-46.157,-0l93.286,238.494l44.213,-0Z" style="fill:#fff;fill-rule:nonzero;"/><path d="M663.971,233.99l-0,-31.369l-90.857,0l0,428.091l90.857,-0l-0,-31.369l-51.988,0l0,-365.353l51.988,0Z" style="fill:#fff;fill-rule:nonzero;"/></g></svg>